<svg width="80" height="80" viewBox="0 0 80 80" fill="none" xmlns="http://www.w3.org/2000/svg">
<circle cx="40" cy="40" r="40" fill="#06021D"/>
<path d="M52.6 16C54.4773 18.2187 55.416 19.5413 55.416 19.968C55.416 20.3947 55.2027 20.864 54.776 21.376C52.7707 23.6373 50.424 25.92 47.736 28.224C47.1387 28.736 46.6907 28.992 46.392 28.992C45.9653 28.992 45.752 28.672 45.752 28.032C45.752 27.3493 46.0293 26.4533 46.584 25.344C47.1813 24.2347 47.48 23.5947 47.48 23.424C47.48 23.2533 47.3947 23.168 47.224 23.168C47.096 23.168 46.904 23.2107 46.648 23.296C41.7413 25.0453 38.328 27.7973 36.408 31.552C35.9813 32.4053 35.768 33.1093 35.768 33.664C35.768 34.7733 36.6213 35.8187 38.328 36.8C38.584 36.9707 39.736 37.5893 41.784 38.656C45.9227 40.8747 48.5253 42.6667 49.592 44.032C51.2987 46.1653 52.152 48.256 52.152 50.304C52.152 51.1147 51.9173 51.968 51.448 52.864C51.0213 53.7173 50.4667 54.3573 49.784 54.784C42.5733 59.264 36.152 61.504 30.52 61.504C27.5333 61.504 26.04 60.1387 26.04 57.408C26.04 56.512 26.3387 55.6587 26.936 54.848C25.912 54.1227 25.4 53.3547 25.4 52.544C25.4 51.6907 25.976 50.8373 27.128 49.984C29.8587 47.936 34.2533 46.912 40.312 46.912C40.952 46.912 41.72 47.1467 42.616 47.616C43.512 48.0427 44.2373 48.512 44.792 49.024C45.8587 48.4267 46.392 47.8933 46.392 47.424C46.392 46.9547 46.1147 46.4853 45.56 46.016C44.7493 45.4187 43.2347 44.6293 41.016 43.648C38.84 42.6667 37.4533 42.0053 36.856 41.664C35.064 40.64 33.6773 39.168 32.696 37.248C31.7573 35.328 31.288 33.3013 31.288 31.168C31.288 28.992 31.8213 27.0293 32.888 25.28C33.9973 23.488 35.5333 21.9307 37.496 20.608C40.4827 18.6027 44.216 16.768 48.696 15.104C49.2933 14.9333 49.7627 14.848 50.104 14.848C51.0853 14.848 51.9173 15.232 52.6 16ZM40.44 51.456C40.0133 51.3707 39.5227 51.328 38.968 51.328C38.4133 51.328 37.3253 51.584 35.704 52.096C34.1253 52.608 33.336 53.184 33.336 53.824C33.336 54.08 33.4853 54.208 33.784 54.208C34.936 54.208 37.1547 53.2907 40.44 51.456Z" fill="white"/>
</svg>
