<svg width="100" height="100" viewBox="0 0 100 100" fill="none" xmlns="http://www.w3.org/2000/svg">
<circle cx="50" cy="50" r="50" fill="#161132"/>
<path d="M37.712 69.944C37.3707 69.944 36.6027 69.8587 35.408 69.688C34.2133 69.6027 33.616 69.2187 33.616 68.536C33.616 68.1093 33.9147 67.64 34.512 67.128C35.1947 66.7013 35.7067 66.36 36.048 66.104C38.4373 64.7387 41.424 63.7573 45.008 63.16C48.592 62.4773 51.7067 62.008 54.352 61.752C54.5227 61.4107 54.608 61.0693 54.608 60.728C54.608 59.3627 53.968 58.1253 52.688 57.016C51.408 55.9067 49.9147 54.7973 48.208 53.688C46.5867 52.5787 45.136 51.3413 43.856 49.976C42.576 48.5253 41.936 46.8613 41.936 44.984C41.936 44.472 42.0213 44.0027 42.192 43.576C42.3627 43.064 42.5333 42.5947 42.704 42.168C44.6667 38.4987 47.312 35.7253 50.64 33.848C54.0533 31.9707 57.7227 30.6053 61.648 29.752C61.9893 29.5813 62.3307 29.496 62.672 29.496C63.0133 29.496 63.3547 29.496 63.696 29.496C64.8907 29.496 65.872 29.8373 66.64 30.52C67.4933 31.1173 67.92 32.056 67.92 33.336C67.92 34.9573 67.3227 36.536 66.128 38.072C64.9333 39.5227 63.568 40.4613 62.032 40.888H61.648C61.5627 40.888 61.52 40.8027 61.52 40.632C61.52 39.9493 61.648 39.2667 61.904 38.584C62.2453 37.9013 62.416 37.2187 62.416 36.536C62.416 35.3413 61.9467 34.5307 61.008 34.104C60.1547 33.592 59.1733 33.336 58.064 33.336C55.6747 33.336 53.3707 34.104 51.152 35.64C49.0187 37.0907 47.952 39.096 47.952 41.656C47.952 43.704 48.5067 45.368 49.616 46.648C50.8107 47.928 52.1333 49.0373 53.584 49.976C55.0347 50.9147 56.3147 51.9387 57.424 53.048C58.6187 54.072 59.216 55.4373 59.216 57.144C59.216 57.9973 59.0027 58.808 58.576 59.576C58.2347 60.344 57.8507 61.0693 57.424 61.752C58.192 61.6667 58.9173 61.624 59.6 61.624C60.368 61.5387 61.136 61.496 61.904 61.496C62.416 61.496 62.672 61.624 62.672 61.88C62.672 62.2213 62.5013 62.4773 62.16 62.648C61.8187 62.8187 61.52 62.9467 61.264 63.032C60.4107 63.1173 59.5573 63.2453 58.704 63.416C57.8507 63.5867 56.9547 63.7573 56.016 63.928C53.6267 66.1467 50.768 67.6827 47.44 68.536C44.1973 69.4747 40.9547 69.944 37.712 69.944Z" fill="white"/>
</svg>
